<mxfile host="app.diagrams.net" modified="2022-04-07T13:02:03.303Z" agent="5.0 (X11; Linux x86_64) AppleWebKit/537.36 (KHTML, like Gecko) Chrome/97.0.4692.99 Safari/537.36" etag="W4z479a8HiRDn_zbz9mi" version="17.4.1" type="github">
  <diagram id="bOpDC4ROktXZ9G_zTPv-" name="Page-1">
    <mxGraphModel dx="1695" dy="1665" grid="1" gridSize="10" guides="1" tooltips="1" connect="1" arrows="1" fold="1" page="1" pageScale="1" pageWidth="827" pageHeight="1169" math="0" shadow="1">
      <root>
        <mxCell id="0" />
        <mxCell id="1" parent="0" />
        <mxCell id="mMfdGGbM-2EiEatci0lj-2" style="edgeStyle=orthogonalEdgeStyle;rounded=0;orthogonalLoop=1;jettySize=auto;html=1;exitX=0.817;exitY=1.033;exitDx=0;exitDy=0;endArrow=oval;endFill=0;exitPerimeter=0;" parent="1" edge="1">
          <mxGeometry relative="1" as="geometry">
            <mxPoint x="279" y="290" as="targetPoint" />
            <mxPoint x="277.03999999999996" y="201.98000000000002" as="sourcePoint" />
            <Array as="points">
              <mxPoint x="279" y="202" />
            </Array>
          </mxGeometry>
        </mxCell>
        <mxCell id="mMfdGGbM-2EiEatci0lj-12" style="edgeStyle=orthogonalEdgeStyle;rounded=0;orthogonalLoop=1;jettySize=auto;html=1;exitX=1;exitY=0.5;exitDx=0;exitDy=0;entryX=0;entryY=0.5;entryDx=0;entryDy=0;endArrow=none;endFill=0;" parent="1" source="mMfdGGbM-2EiEatci0lj-1" target="mMfdGGbM-2EiEatci0lj-11" edge="1">
          <mxGeometry relative="1" as="geometry" />
        </mxCell>
        <mxCell id="mMfdGGbM-2EiEatci0lj-57" style="edgeStyle=orthogonalEdgeStyle;rounded=0;orthogonalLoop=1;jettySize=auto;html=1;exitX=0.75;exitY=0;exitDx=0;exitDy=0;entryX=0.5;entryY=1;entryDx=0;entryDy=0;endArrow=none;endFill=0;" parent="1" source="mMfdGGbM-2EiEatci0lj-1" target="mMfdGGbM-2EiEatci0lj-34" edge="1">
          <mxGeometry relative="1" as="geometry" />
        </mxCell>
        <mxCell id="mMfdGGbM-2EiEatci0lj-151" style="edgeStyle=orthogonalEdgeStyle;rounded=0;orthogonalLoop=1;jettySize=auto;html=1;exitX=0.5;exitY=1;exitDx=0;exitDy=0;endArrow=oval;endFill=0;" parent="1" edge="1">
          <mxGeometry relative="1" as="geometry">
            <mxPoint x="257.73913043478274" y="310" as="targetPoint" />
            <mxPoint x="258.0000000000002" y="200.00000000000023" as="sourcePoint" />
            <Array as="points">
              <mxPoint x="257" y="200" />
              <mxPoint x="257" y="255" />
            </Array>
          </mxGeometry>
        </mxCell>
        <mxCell id="mMfdGGbM-2EiEatci0lj-152" style="edgeStyle=orthogonalEdgeStyle;rounded=0;orthogonalLoop=1;jettySize=auto;html=1;exitX=0.5;exitY=1;exitDx=0;exitDy=0;endArrow=oval;endFill=0;" parent="1" source="mMfdGGbM-2EiEatci0lj-1" edge="1">
          <mxGeometry relative="1" as="geometry">
            <mxPoint x="239.73913043478274" y="330" as="targetPoint" />
          </mxGeometry>
        </mxCell>
        <mxCell id="mMfdGGbM-2EiEatci0lj-153" style="edgeStyle=orthogonalEdgeStyle;rounded=0;orthogonalLoop=1;jettySize=auto;html=1;exitX=0.25;exitY=1;exitDx=0;exitDy=0;endArrow=oval;endFill=0;" parent="1" edge="1">
          <mxGeometry relative="1" as="geometry">
            <mxPoint x="223.17391304347848" y="350" as="targetPoint" />
            <mxPoint x="223.00000000000023" y="200.00000000000023" as="sourcePoint" />
            <Array as="points">
              <mxPoint x="223" y="240" />
              <mxPoint x="223" y="240" />
            </Array>
          </mxGeometry>
        </mxCell>
        <mxCell id="mMfdGGbM-2EiEatci0lj-154" style="edgeStyle=orthogonalEdgeStyle;rounded=0;orthogonalLoop=1;jettySize=auto;html=1;exitX=0.25;exitY=1;exitDx=0;exitDy=0;endArrow=oval;endFill=0;" parent="1" source="mMfdGGbM-2EiEatci0lj-1" edge="1">
          <mxGeometry relative="1" as="geometry">
            <mxPoint x="210.17391304347848" y="370" as="targetPoint" />
          </mxGeometry>
        </mxCell>
        <mxCell id="o3-ZCwz5johq-laWg9kE-19" style="edgeStyle=orthogonalEdgeStyle;rounded=0;orthogonalLoop=1;jettySize=auto;html=1;exitX=0;exitY=1;exitDx=0;exitDy=0;entryX=0.5;entryY=0;entryDx=0;entryDy=0;endArrow=none;endFill=0;" edge="1" parent="1" target="o3-ZCwz5johq-laWg9kE-18">
          <mxGeometry relative="1" as="geometry">
            <mxPoint x="190" y="200" as="sourcePoint" />
            <mxPoint x="191" y="394" as="targetPoint" />
            <Array as="points">
              <mxPoint x="190" y="297" />
              <mxPoint x="191" y="297" />
              <mxPoint x="191" y="394" />
            </Array>
          </mxGeometry>
        </mxCell>
        <mxCell id="mMfdGGbM-2EiEatci0lj-1" value="Producto" style="rounded=0;whiteSpace=wrap;html=1;fontStyle=1;fillColor=#dae8fc;strokeColor=#6c8ebf;" parent="1" vertex="1">
          <mxGeometry x="180" y="140" width="120" height="60" as="geometry" />
        </mxCell>
        <mxCell id="mMfdGGbM-2EiEatci0lj-3" value="codProd" style="text;html=1;align=center;verticalAlign=middle;resizable=0;points=[];autosize=1;strokeColor=none;fillColor=none;" parent="1" vertex="1">
          <mxGeometry x="279" y="280" width="60" height="20" as="geometry" />
        </mxCell>
        <mxCell id="mMfdGGbM-2EiEatci0lj-14" style="edgeStyle=orthogonalEdgeStyle;rounded=0;orthogonalLoop=1;jettySize=auto;html=1;exitX=0.25;exitY=0;exitDx=0;exitDy=0;endArrow=oval;endFill=1;" parent="1" source="mMfdGGbM-2EiEatci0lj-10" edge="1">
          <mxGeometry relative="1" as="geometry">
            <mxPoint x="540" y="80" as="targetPoint" />
          </mxGeometry>
        </mxCell>
        <mxCell id="mMfdGGbM-2EiEatci0lj-126" style="edgeStyle=orthogonalEdgeStyle;rounded=0;orthogonalLoop=1;jettySize=auto;html=1;exitX=0.5;exitY=1;exitDx=0;exitDy=0;entryX=0.5;entryY=0;entryDx=0;entryDy=0;endArrow=none;endFill=0;" parent="1" source="mMfdGGbM-2EiEatci0lj-10" target="mMfdGGbM-2EiEatci0lj-123" edge="1">
          <mxGeometry relative="1" as="geometry" />
        </mxCell>
        <mxCell id="mMfdGGbM-2EiEatci0lj-10" value="Marca" style="rounded=0;whiteSpace=wrap;html=1;fontStyle=1;fillColor=#d5e8d4;strokeColor=#82b366;" parent="1" vertex="1">
          <mxGeometry x="510" y="140" width="120" height="60" as="geometry" />
        </mxCell>
        <mxCell id="mMfdGGbM-2EiEatci0lj-13" style="edgeStyle=orthogonalEdgeStyle;rounded=0;orthogonalLoop=1;jettySize=auto;html=1;exitX=1;exitY=0.5;exitDx=0;exitDy=0;entryX=0;entryY=0.5;entryDx=0;entryDy=0;endArrow=none;endFill=0;" parent="1" source="mMfdGGbM-2EiEatci0lj-11" target="mMfdGGbM-2EiEatci0lj-10" edge="1">
          <mxGeometry relative="1" as="geometry" />
        </mxCell>
        <mxCell id="mMfdGGbM-2EiEatci0lj-11" value="es marca" style="rhombus;whiteSpace=wrap;html=1;fillColor=#fff2cc;strokeColor=#d6b656;" parent="1" vertex="1">
          <mxGeometry x="352" y="130" width="80" height="80" as="geometry" />
        </mxCell>
        <mxCell id="mMfdGGbM-2EiEatci0lj-15" value="nombreMarca" style="text;html=1;align=center;verticalAlign=middle;resizable=0;points=[];autosize=1;strokeColor=none;fillColor=none;" parent="1" vertex="1">
          <mxGeometry x="540" y="70" width="90" height="20" as="geometry" />
        </mxCell>
        <mxCell id="mMfdGGbM-2EiEatci0lj-16" value="" style="curved=1;endArrow=oval;html=1;rounded=0;endFill=1;" parent="1" edge="1">
          <mxGeometry width="50" height="50" relative="1" as="geometry">
            <mxPoint x="480" y="170" as="sourcePoint" />
            <mxPoint x="268" y="260" as="targetPoint" />
            <Array as="points">
              <mxPoint x="490" y="260" />
            </Array>
          </mxGeometry>
        </mxCell>
        <mxCell id="mMfdGGbM-2EiEatci0lj-48" style="edgeStyle=orthogonalEdgeStyle;rounded=0;orthogonalLoop=1;jettySize=auto;html=1;exitX=0.5;exitY=0;exitDx=0;exitDy=0;entryX=0.5;entryY=1;entryDx=0;entryDy=0;endArrow=none;endFill=0;" parent="1" source="mMfdGGbM-2EiEatci0lj-17" target="mMfdGGbM-2EiEatci0lj-22" edge="1">
          <mxGeometry relative="1" as="geometry" />
        </mxCell>
        <mxCell id="mMfdGGbM-2EiEatci0lj-70" style="edgeStyle=orthogonalEdgeStyle;rounded=0;orthogonalLoop=1;jettySize=auto;html=1;exitX=0;exitY=0.25;exitDx=0;exitDy=0;endArrow=oval;endFill=1;" parent="1" source="mMfdGGbM-2EiEatci0lj-17" edge="1">
          <mxGeometry relative="1" as="geometry">
            <mxPoint x="-590" y="154.9565217391305" as="targetPoint" />
          </mxGeometry>
        </mxCell>
        <mxCell id="mMfdGGbM-2EiEatci0lj-71" style="edgeStyle=orthogonalEdgeStyle;rounded=0;orthogonalLoop=1;jettySize=auto;html=1;exitX=0;exitY=0.5;exitDx=0;exitDy=0;endArrow=oval;endFill=0;" parent="1" source="mMfdGGbM-2EiEatci0lj-17" edge="1">
          <mxGeometry relative="1" as="geometry">
            <mxPoint x="-590" y="169.73913043478274" as="targetPoint" />
          </mxGeometry>
        </mxCell>
        <mxCell id="mMfdGGbM-2EiEatci0lj-72" style="edgeStyle=orthogonalEdgeStyle;rounded=0;orthogonalLoop=1;jettySize=auto;html=1;exitX=0;exitY=0.75;exitDx=0;exitDy=0;endArrow=oval;endFill=0;" parent="1" source="mMfdGGbM-2EiEatci0lj-17" edge="1">
          <mxGeometry relative="1" as="geometry">
            <mxPoint x="-590" y="185.39130434782624" as="targetPoint" />
          </mxGeometry>
        </mxCell>
        <mxCell id="mMfdGGbM-2EiEatci0lj-17" value="Venta" style="rounded=0;whiteSpace=wrap;html=1;fontStyle=1;fillColor=#d5e8d4;strokeColor=#82b366;" parent="1" vertex="1">
          <mxGeometry x="-549" y="140" width="120" height="60" as="geometry" />
        </mxCell>
        <mxCell id="mMfdGGbM-2EiEatci0lj-19" style="edgeStyle=orthogonalEdgeStyle;rounded=0;orthogonalLoop=1;jettySize=auto;html=1;exitX=1;exitY=0.5;exitDx=0;exitDy=0;entryX=0;entryY=0.5;entryDx=0;entryDy=0;endArrow=none;endFill=0;" parent="1" source="mMfdGGbM-2EiEatci0lj-18" target="mMfdGGbM-2EiEatci0lj-1" edge="1">
          <mxGeometry relative="1" as="geometry" />
        </mxCell>
        <mxCell id="mMfdGGbM-2EiEatci0lj-20" style="edgeStyle=orthogonalEdgeStyle;rounded=0;orthogonalLoop=1;jettySize=auto;html=1;exitX=0;exitY=0.5;exitDx=0;exitDy=0;entryX=1;entryY=0.5;entryDx=0;entryDy=0;endArrow=none;endFill=0;" parent="1" source="mMfdGGbM-2EiEatci0lj-18" target="mMfdGGbM-2EiEatci0lj-17" edge="1">
          <mxGeometry relative="1" as="geometry" />
        </mxCell>
        <mxCell id="mMfdGGbM-2EiEatci0lj-76" style="edgeStyle=orthogonalEdgeStyle;rounded=0;orthogonalLoop=1;jettySize=auto;html=1;exitX=0.5;exitY=1;exitDx=0;exitDy=0;endArrow=oval;endFill=0;" parent="1" source="mMfdGGbM-2EiEatci0lj-18" edge="1">
          <mxGeometry relative="1" as="geometry">
            <mxPoint x="-49.69230769230762" y="240" as="targetPoint" />
          </mxGeometry>
        </mxCell>
        <mxCell id="mMfdGGbM-2EiEatci0lj-18" value="se vende" style="rhombus;whiteSpace=wrap;html=1;fillColor=#fff2cc;strokeColor=#d6b656;" parent="1" vertex="1">
          <mxGeometry x="-90" y="130" width="80" height="80" as="geometry" />
        </mxCell>
        <mxCell id="mMfdGGbM-2EiEatci0lj-83" style="edgeStyle=orthogonalEdgeStyle;rounded=0;orthogonalLoop=1;jettySize=auto;html=1;exitX=1;exitY=0.25;exitDx=0;exitDy=0;endArrow=oval;endFill=1;" parent="1" edge="1">
          <mxGeometry relative="1" as="geometry">
            <mxPoint x="-200" y="-243.60869565217376" as="targetPoint" />
            <mxPoint x="-229" y="-244" as="sourcePoint" />
          </mxGeometry>
        </mxCell>
        <mxCell id="mMfdGGbM-2EiEatci0lj-84" style="edgeStyle=orthogonalEdgeStyle;rounded=0;orthogonalLoop=1;jettySize=auto;html=1;exitX=1;exitY=0.5;exitDx=0;exitDy=0;endArrow=oval;endFill=0;" parent="1" edge="1">
          <mxGeometry relative="1" as="geometry">
            <mxPoint x="-200" y="-228.82608695652152" as="targetPoint" />
            <mxPoint x="-229" y="-229" as="sourcePoint" />
          </mxGeometry>
        </mxCell>
        <mxCell id="mMfdGGbM-2EiEatci0lj-85" style="edgeStyle=orthogonalEdgeStyle;rounded=0;orthogonalLoop=1;jettySize=auto;html=1;exitX=1;exitY=0.75;exitDx=0;exitDy=0;endArrow=oval;endFill=0;" parent="1" edge="1">
          <mxGeometry relative="1" as="geometry">
            <mxPoint x="-200" y="-214.0434782608695" as="targetPoint" />
            <mxPoint x="-229" y="-214" as="sourcePoint" />
          </mxGeometry>
        </mxCell>
        <mxCell id="G6NL-QWqGKTzPhSWlAU9-1" style="edgeStyle=orthogonalEdgeStyle;rounded=0;orthogonalLoop=1;jettySize=auto;html=1;exitX=1;exitY=0.75;exitDx=0;exitDy=0;endArrow=oval;endFill=0;" parent="1" source="mMfdGGbM-2EiEatci0lj-21" edge="1">
          <mxGeometry relative="1" as="geometry">
            <mxPoint x="-200" y="-190" as="targetPoint" />
          </mxGeometry>
        </mxCell>
        <mxCell id="mMfdGGbM-2EiEatci0lj-21" value="Tarjeta" style="rounded=0;whiteSpace=wrap;html=1;fontStyle=1;fillColor=#d5e8d4;strokeColor=#82b366;" parent="1" vertex="1">
          <mxGeometry x="-349" y="-250" width="120" height="80" as="geometry" />
        </mxCell>
        <mxCell id="mMfdGGbM-2EiEatci0lj-49" style="edgeStyle=orthogonalEdgeStyle;rounded=0;orthogonalLoop=1;jettySize=auto;html=1;exitX=1;exitY=0.5;exitDx=0;exitDy=0;entryX=0;entryY=0.5;entryDx=0;entryDy=0;endArrow=none;endFill=0;" parent="1" source="mMfdGGbM-2EiEatci0lj-22" target="mMfdGGbM-2EiEatci0lj-21" edge="1">
          <mxGeometry relative="1" as="geometry" />
        </mxCell>
        <mxCell id="mMfdGGbM-2EiEatci0lj-81" style="edgeStyle=orthogonalEdgeStyle;rounded=0;orthogonalLoop=1;jettySize=auto;html=1;exitX=0;exitY=0.5;exitDx=0;exitDy=0;endArrow=oval;endFill=0;" parent="1" source="mMfdGGbM-2EiEatci0lj-22" edge="1">
          <mxGeometry relative="1" as="geometry">
            <mxPoint x="-560" y="-209.5" as="targetPoint" />
          </mxGeometry>
        </mxCell>
        <mxCell id="mMfdGGbM-2EiEatci0lj-22" value="se paga" style="rhombus;whiteSpace=wrap;html=1;fillColor=#fff2cc;strokeColor=#d6b656;" parent="1" vertex="1">
          <mxGeometry x="-529" y="-250" width="80" height="80" as="geometry" />
        </mxCell>
        <mxCell id="mMfdGGbM-2EiEatci0lj-28" style="edgeStyle=orthogonalEdgeStyle;rounded=0;orthogonalLoop=1;jettySize=auto;html=1;exitX=0;exitY=0.5;exitDx=0;exitDy=0;entryX=1;entryY=0.5;entryDx=0;entryDy=0;endArrow=none;endFill=0;" parent="1" source="mMfdGGbM-2EiEatci0lj-25" target="mMfdGGbM-2EiEatci0lj-26" edge="1">
          <mxGeometry relative="1" as="geometry" />
        </mxCell>
        <mxCell id="mMfdGGbM-2EiEatci0lj-109" style="edgeStyle=orthogonalEdgeStyle;rounded=0;orthogonalLoop=1;jettySize=auto;html=1;exitX=1;exitY=0.25;exitDx=0;exitDy=0;endArrow=oval;endFill=1;" parent="1" source="mMfdGGbM-2EiEatci0lj-25" edge="1">
          <mxGeometry relative="1" as="geometry">
            <mxPoint x="-150" y="285.39130434782624" as="targetPoint" />
          </mxGeometry>
        </mxCell>
        <mxCell id="mMfdGGbM-2EiEatci0lj-110" style="edgeStyle=orthogonalEdgeStyle;rounded=0;orthogonalLoop=1;jettySize=auto;html=1;exitX=1;exitY=0.5;exitDx=0;exitDy=0;endArrow=oval;endFill=0;" parent="1" source="mMfdGGbM-2EiEatci0lj-25" edge="1">
          <mxGeometry relative="1" as="geometry">
            <mxPoint x="-150" y="300.1739130434785" as="targetPoint" />
          </mxGeometry>
        </mxCell>
        <mxCell id="mMfdGGbM-2EiEatci0lj-111" style="edgeStyle=orthogonalEdgeStyle;rounded=0;orthogonalLoop=1;jettySize=auto;html=1;exitX=1;exitY=0.75;exitDx=0;exitDy=0;endArrow=oval;endFill=0;" parent="1" source="mMfdGGbM-2EiEatci0lj-25" edge="1">
          <mxGeometry relative="1" as="geometry">
            <mxPoint x="-150" y="314.9565217391305" as="targetPoint" />
          </mxGeometry>
        </mxCell>
        <mxCell id="o3-ZCwz5johq-laWg9kE-29" style="edgeStyle=orthogonalEdgeStyle;rounded=0;orthogonalLoop=1;jettySize=auto;html=1;exitX=0.75;exitY=1;exitDx=0;exitDy=0;endArrow=oval;endFill=0;" edge="1" parent="1" source="mMfdGGbM-2EiEatci0lj-25">
          <mxGeometry relative="1" as="geometry">
            <mxPoint x="-209" y="350" as="targetPoint" />
          </mxGeometry>
        </mxCell>
        <mxCell id="o3-ZCwz5johq-laWg9kE-30" style="edgeStyle=orthogonalEdgeStyle;rounded=0;orthogonalLoop=1;jettySize=auto;html=1;exitX=0.75;exitY=0;exitDx=0;exitDy=0;endArrow=oval;endFill=0;" edge="1" parent="1" source="mMfdGGbM-2EiEatci0lj-25">
          <mxGeometry relative="1" as="geometry">
            <mxPoint x="-209" y="250" as="targetPoint" />
          </mxGeometry>
        </mxCell>
        <mxCell id="mMfdGGbM-2EiEatci0lj-25" value="Cliente" style="rounded=0;whiteSpace=wrap;html=1;fontStyle=1;fillColor=#d5e8d4;strokeColor=#82b366;" parent="1" vertex="1">
          <mxGeometry x="-299" y="270" width="120" height="60" as="geometry" />
        </mxCell>
        <mxCell id="mMfdGGbM-2EiEatci0lj-27" style="edgeStyle=orthogonalEdgeStyle;rounded=0;orthogonalLoop=1;jettySize=auto;html=1;exitX=0.5;exitY=0;exitDx=0;exitDy=0;entryX=0.5;entryY=1;entryDx=0;entryDy=0;endArrow=none;endFill=0;" parent="1" source="mMfdGGbM-2EiEatci0lj-26" target="mMfdGGbM-2EiEatci0lj-17" edge="1">
          <mxGeometry relative="1" as="geometry" />
        </mxCell>
        <mxCell id="mMfdGGbM-2EiEatci0lj-26" value="realiza&lt;br&gt;compra" style="rhombus;whiteSpace=wrap;html=1;fillColor=#fff2cc;strokeColor=#d6b656;" parent="1" vertex="1">
          <mxGeometry x="-529" y="260" width="80" height="80" as="geometry" />
        </mxCell>
        <mxCell id="mMfdGGbM-2EiEatci0lj-99" style="edgeStyle=orthogonalEdgeStyle;rounded=0;orthogonalLoop=1;jettySize=auto;html=1;exitX=0.25;exitY=0;exitDx=0;exitDy=0;endArrow=oval;endFill=1;" parent="1" source="mMfdGGbM-2EiEatci0lj-33" edge="1">
          <mxGeometry relative="1" as="geometry">
            <mxPoint x="161.69565217391323" y="-470" as="targetPoint" />
          </mxGeometry>
        </mxCell>
        <mxCell id="mMfdGGbM-2EiEatci0lj-100" style="edgeStyle=orthogonalEdgeStyle;rounded=0;orthogonalLoop=1;jettySize=auto;html=1;exitX=0.5;exitY=0;exitDx=0;exitDy=0;endArrow=oval;endFill=0;" parent="1" edge="1">
          <mxGeometry relative="1" as="geometry">
            <mxPoint x="178.13043478260875" y="-450" as="targetPoint" />
            <mxPoint x="178" y="-370" as="sourcePoint" />
            <Array as="points">
              <mxPoint x="178" y="-390" />
              <mxPoint x="178" y="-390" />
            </Array>
          </mxGeometry>
        </mxCell>
        <mxCell id="mMfdGGbM-2EiEatci0lj-101" style="edgeStyle=orthogonalEdgeStyle;rounded=0;orthogonalLoop=1;jettySize=auto;html=1;exitX=0.5;exitY=0;exitDx=0;exitDy=0;endArrow=oval;endFill=0;" parent="1" edge="1">
          <mxGeometry relative="1" as="geometry">
            <mxPoint x="195.13043478260875" y="-430" as="targetPoint" />
            <mxPoint x="195" y="-370" as="sourcePoint" />
            <Array as="points">
              <mxPoint x="195" y="-390" />
              <mxPoint x="195" y="-390" />
            </Array>
          </mxGeometry>
        </mxCell>
        <mxCell id="mMfdGGbM-2EiEatci0lj-102" style="edgeStyle=orthogonalEdgeStyle;rounded=0;orthogonalLoop=1;jettySize=auto;html=1;exitX=0.75;exitY=0;exitDx=0;exitDy=0;endArrow=oval;endFill=0;" parent="1" edge="1">
          <mxGeometry relative="1" as="geometry">
            <mxPoint x="209.69565217391323" y="-410" as="targetPoint" />
            <mxPoint x="210" y="-370" as="sourcePoint" />
            <Array as="points">
              <mxPoint x="210" y="-380" />
              <mxPoint x="210" y="-380" />
            </Array>
          </mxGeometry>
        </mxCell>
        <mxCell id="o3-ZCwz5johq-laWg9kE-5" style="edgeStyle=orthogonalEdgeStyle;rounded=0;orthogonalLoop=1;jettySize=auto;html=1;exitX=0.75;exitY=1;exitDx=0;exitDy=0;entryX=0.5;entryY=0;entryDx=0;entryDy=0;endArrow=none;endFill=0;" edge="1" parent="1" source="mMfdGGbM-2EiEatci0lj-33" target="o3-ZCwz5johq-laWg9kE-2">
          <mxGeometry relative="1" as="geometry" />
        </mxCell>
        <mxCell id="mMfdGGbM-2EiEatci0lj-33" value="Promoción" style="rounded=0;whiteSpace=wrap;html=1;fontStyle=1;fillColor=#d5e8d4;strokeColor=#82b366;" parent="1" vertex="1">
          <mxGeometry x="132" y="-370" width="120" height="60" as="geometry" />
        </mxCell>
        <mxCell id="mMfdGGbM-2EiEatci0lj-58" style="edgeStyle=orthogonalEdgeStyle;rounded=0;orthogonalLoop=1;jettySize=auto;html=1;exitX=0.5;exitY=0;exitDx=0;exitDy=0;entryX=0.5;entryY=1;entryDx=0;entryDy=0;endArrow=none;endFill=0;" parent="1" source="mMfdGGbM-2EiEatci0lj-34" target="mMfdGGbM-2EiEatci0lj-50" edge="1">
          <mxGeometry relative="1" as="geometry" />
        </mxCell>
        <mxCell id="mMfdGGbM-2EiEatci0lj-34" value="aplica&lt;br&gt;prod" style="rhombus;whiteSpace=wrap;html=1;fillColor=#fff2cc;strokeColor=#d6b656;" parent="1" vertex="1">
          <mxGeometry x="230" y="10" width="80" height="80" as="geometry" />
        </mxCell>
        <mxCell id="mMfdGGbM-2EiEatci0lj-50" value="PromoProductos" style="rounded=1;whiteSpace=wrap;html=1;fontStyle=1" parent="1" vertex="1">
          <mxGeometry x="210" y="-90" width="120" height="60" as="geometry" />
        </mxCell>
        <mxCell id="mMfdGGbM-2EiEatci0lj-51" value="PromoTarjeta" style="rounded=1;whiteSpace=wrap;html=1;fontStyle=1" parent="1" vertex="1">
          <mxGeometry x="60" y="-90" width="120" height="60" as="geometry" />
        </mxCell>
        <mxCell id="mMfdGGbM-2EiEatci0lj-55" style="edgeStyle=orthogonalEdgeStyle;rounded=0;orthogonalLoop=1;jettySize=auto;html=1;exitX=1;exitY=0.5;exitDx=0;exitDy=0;entryX=0;entryY=0.5;entryDx=0;entryDy=0;endArrow=none;endFill=0;" parent="1" source="mMfdGGbM-2EiEatci0lj-52" target="mMfdGGbM-2EiEatci0lj-51" edge="1">
          <mxGeometry relative="1" as="geometry" />
        </mxCell>
        <mxCell id="mMfdGGbM-2EiEatci0lj-97" style="edgeStyle=orthogonalEdgeStyle;rounded=0;orthogonalLoop=1;jettySize=auto;html=1;exitX=0.5;exitY=1;exitDx=0;exitDy=0;endArrow=oval;endFill=0;" parent="1" source="mMfdGGbM-2EiEatci0lj-52" edge="1">
          <mxGeometry relative="1" as="geometry">
            <mxPoint x="-49.82608695652152" y="10" as="targetPoint" />
          </mxGeometry>
        </mxCell>
        <mxCell id="mMfdGGbM-2EiEatci0lj-52" value="aplica&lt;br&gt;entidad" style="rhombus;whiteSpace=wrap;html=1;fillColor=#ffe6cc;strokeColor=#d79b00;" parent="1" vertex="1">
          <mxGeometry x="-90" y="-100" width="80" height="80" as="geometry" />
        </mxCell>
        <mxCell id="mMfdGGbM-2EiEatci0lj-63" style="edgeStyle=orthogonalEdgeStyle;rounded=0;orthogonalLoop=1;jettySize=auto;html=1;exitX=0.5;exitY=1;exitDx=0;exitDy=0;entryX=0.5;entryY=0;entryDx=0;entryDy=0;endArrow=none;endFill=0;" parent="1" source="mMfdGGbM-2EiEatci0lj-59" target="mMfdGGbM-2EiEatci0lj-52" edge="1">
          <mxGeometry relative="1" as="geometry" />
        </mxCell>
        <mxCell id="mMfdGGbM-2EiEatci0lj-64" style="edgeStyle=orthogonalEdgeStyle;rounded=0;orthogonalLoop=1;jettySize=auto;html=1;exitX=0.25;exitY=0;exitDx=0;exitDy=0;endArrow=oval;endFill=1;" parent="1" source="mMfdGGbM-2EiEatci0lj-59" edge="1">
          <mxGeometry relative="1" as="geometry">
            <mxPoint x="-79.94736842105249" y="-410" as="targetPoint" />
          </mxGeometry>
        </mxCell>
        <mxCell id="mMfdGGbM-2EiEatci0lj-59" value="Entidad" style="rounded=1;whiteSpace=wrap;html=1;fontStyle=1;fillColor=#d5e8d4;strokeColor=#82b366;" parent="1" vertex="1">
          <mxGeometry x="-110" y="-370" width="120" height="60" as="geometry" />
        </mxCell>
        <mxCell id="mMfdGGbM-2EiEatci0lj-61" style="edgeStyle=orthogonalEdgeStyle;rounded=0;orthogonalLoop=1;jettySize=auto;html=1;exitX=0.5;exitY=1;exitDx=0;exitDy=0;entryX=0.5;entryY=0;entryDx=0;entryDy=0;endArrow=none;endFill=0;" parent="1" source="mMfdGGbM-2EiEatci0lj-60" target="mMfdGGbM-2EiEatci0lj-21" edge="1">
          <mxGeometry relative="1" as="geometry" />
        </mxCell>
        <mxCell id="mMfdGGbM-2EiEatci0lj-62" style="edgeStyle=orthogonalEdgeStyle;rounded=0;orthogonalLoop=1;jettySize=auto;html=1;exitX=1;exitY=0.5;exitDx=0;exitDy=0;entryX=0;entryY=0.5;entryDx=0;entryDy=0;endArrow=none;endFill=0;" parent="1" source="mMfdGGbM-2EiEatci0lj-60" target="mMfdGGbM-2EiEatci0lj-59" edge="1">
          <mxGeometry relative="1" as="geometry" />
        </mxCell>
        <mxCell id="mMfdGGbM-2EiEatci0lj-60" value="pertenece" style="rhombus;whiteSpace=wrap;html=1;fillColor=#ffe6cc;strokeColor=#d79b00;" parent="1" vertex="1">
          <mxGeometry x="-329" y="-380" width="80" height="80" as="geometry" />
        </mxCell>
        <mxCell id="mMfdGGbM-2EiEatci0lj-65" value="nombreEntidad" style="text;html=1;align=center;verticalAlign=middle;resizable=0;points=[];autosize=1;strokeColor=none;fillColor=none;" parent="1" vertex="1">
          <mxGeometry x="-80" y="-419" width="100" height="20" as="geometry" />
        </mxCell>
        <mxCell id="mMfdGGbM-2EiEatci0lj-66" value="(1,N)" style="text;html=1;align=center;verticalAlign=middle;resizable=0;points=[];autosize=1;strokeColor=none;fillColor=none;" parent="1" vertex="1">
          <mxGeometry x="-429" y="150" width="40" height="20" as="geometry" />
        </mxCell>
        <mxCell id="mMfdGGbM-2EiEatci0lj-67" value="(0,N)" style="text;html=1;align=center;verticalAlign=middle;resizable=0;points=[];autosize=1;strokeColor=none;fillColor=none;" parent="1" vertex="1">
          <mxGeometry x="140" y="150" width="40" height="20" as="geometry" />
        </mxCell>
        <mxCell id="mMfdGGbM-2EiEatci0lj-68" value="(1,1)" style="text;html=1;align=center;verticalAlign=middle;resizable=0;points=[];autosize=1;strokeColor=none;fillColor=none;" parent="1" vertex="1">
          <mxGeometry x="-489" y="200" width="40" height="20" as="geometry" />
        </mxCell>
        <mxCell id="mMfdGGbM-2EiEatci0lj-69" value="(0,N)" style="text;html=1;align=center;verticalAlign=middle;resizable=0;points=[];autosize=1;strokeColor=none;fillColor=none;" parent="1" vertex="1">
          <mxGeometry x="-339" y="282" width="40" height="20" as="geometry" />
        </mxCell>
        <mxCell id="mMfdGGbM-2EiEatci0lj-73" value="#ticket" style="text;html=1;align=center;verticalAlign=middle;resizable=0;points=[];autosize=1;strokeColor=none;fillColor=none;" parent="1" vertex="1">
          <mxGeometry x="-640" y="144" width="50" height="20" as="geometry" />
        </mxCell>
        <mxCell id="mMfdGGbM-2EiEatci0lj-74" value="monto" style="text;html=1;align=center;verticalAlign=middle;resizable=0;points=[];autosize=1;strokeColor=none;fillColor=none;" parent="1" vertex="1">
          <mxGeometry x="-639" y="159" width="50" height="20" as="geometry" />
        </mxCell>
        <mxCell id="mMfdGGbM-2EiEatci0lj-75" value="montoDesc(0,1)" style="text;html=1;align=center;verticalAlign=middle;resizable=0;points=[];autosize=1;strokeColor=none;fillColor=none;" parent="1" vertex="1">
          <mxGeometry x="-689" y="176" width="100" height="20" as="geometry" />
        </mxCell>
        <mxCell id="mMfdGGbM-2EiEatci0lj-77" value="precio" style="text;html=1;align=center;verticalAlign=middle;resizable=0;points=[];autosize=1;strokeColor=none;fillColor=none;" parent="1" vertex="1">
          <mxGeometry x="-50" y="230" width="50" height="20" as="geometry" />
        </mxCell>
        <mxCell id="mMfdGGbM-2EiEatci0lj-78" value="(0,1)" style="text;html=1;align=center;verticalAlign=middle;resizable=0;points=[];autosize=1;strokeColor=none;fillColor=none;" parent="1" vertex="1">
          <mxGeometry x="-489" y="120" width="40" height="20" as="geometry" />
        </mxCell>
        <mxCell id="mMfdGGbM-2EiEatci0lj-79" value="(0,N)" style="text;html=1;align=center;verticalAlign=middle;resizable=0;points=[];autosize=1;strokeColor=none;fillColor=none;" parent="1" vertex="1">
          <mxGeometry x="-389" y="-229" width="40" height="20" as="geometry" />
        </mxCell>
        <mxCell id="mMfdGGbM-2EiEatci0lj-82" value="#cuotas(0,1)" style="text;html=1;align=center;verticalAlign=middle;resizable=0;points=[];autosize=1;strokeColor=none;fillColor=none;" parent="1" vertex="1">
          <mxGeometry x="-640" y="-220" width="80" height="20" as="geometry" />
        </mxCell>
        <mxCell id="mMfdGGbM-2EiEatci0lj-89" value="nro" style="text;html=1;align=center;verticalAlign=middle;resizable=0;points=[];autosize=1;strokeColor=none;fillColor=none;" parent="1" vertex="1">
          <mxGeometry x="-198" y="-254" width="30" height="20" as="geometry" />
        </mxCell>
        <mxCell id="mMfdGGbM-2EiEatci0lj-90" value="(1,1)" style="text;html=1;align=center;verticalAlign=middle;resizable=0;points=[];autosize=1;strokeColor=none;fillColor=none;" parent="1" vertex="1">
          <mxGeometry x="-328" y="-271" width="40" height="20" as="geometry" />
        </mxCell>
        <mxCell id="mMfdGGbM-2EiEatci0lj-91" value="(0,N)" style="text;html=1;align=center;verticalAlign=middle;resizable=0;points=[];autosize=1;strokeColor=none;fillColor=none;" parent="1" vertex="1">
          <mxGeometry x="-150" y="-360" width="40" height="20" as="geometry" />
        </mxCell>
        <mxCell id="mMfdGGbM-2EiEatci0lj-92" value="banco" style="text;html=1;align=center;verticalAlign=middle;resizable=0;points=[];autosize=1;strokeColor=none;fillColor=none;" parent="1" vertex="1">
          <mxGeometry x="-200" y="-219" width="50" height="20" as="geometry" />
        </mxCell>
        <mxCell id="mMfdGGbM-2EiEatci0lj-93" value="codSeg" style="text;html=1;align=center;verticalAlign=middle;resizable=0;points=[];autosize=1;strokeColor=none;fillColor=none;" parent="1" vertex="1">
          <mxGeometry x="-202" y="-238" width="60" height="20" as="geometry" />
        </mxCell>
        <mxCell id="mMfdGGbM-2EiEatci0lj-94" value="(1,N)" style="text;html=1;align=center;verticalAlign=middle;resizable=0;points=[];autosize=1;strokeColor=none;fillColor=none;" parent="1" vertex="1">
          <mxGeometry x="20" y="-80" width="40" height="20" as="geometry" />
        </mxCell>
        <mxCell id="mMfdGGbM-2EiEatci0lj-96" value="(0,N)" style="text;html=1;align=center;verticalAlign=middle;resizable=0;points=[];autosize=1;strokeColor=none;fillColor=none;" parent="1" vertex="1">
          <mxGeometry x="-50" y="-310" width="40" height="20" as="geometry" />
        </mxCell>
        <mxCell id="mMfdGGbM-2EiEatci0lj-98" value="#cuotasSinInteres" style="text;html=1;align=center;verticalAlign=middle;resizable=0;points=[];autosize=1;strokeColor=none;fillColor=none;" parent="1" vertex="1">
          <mxGeometry x="-160" width="110" height="20" as="geometry" />
        </mxCell>
        <mxCell id="mMfdGGbM-2EiEatci0lj-103" value="codPromo" style="text;html=1;align=center;verticalAlign=middle;resizable=0;points=[];autosize=1;strokeColor=none;fillColor=none;" parent="1" vertex="1">
          <mxGeometry x="163" y="-480" width="70" height="20" as="geometry" />
        </mxCell>
        <mxCell id="mMfdGGbM-2EiEatci0lj-104" value="fechaIni" style="text;html=1;align=center;verticalAlign=middle;resizable=0;points=[];autosize=1;strokeColor=none;fillColor=none;" parent="1" vertex="1">
          <mxGeometry x="177" y="-460" width="60" height="20" as="geometry" />
        </mxCell>
        <mxCell id="mMfdGGbM-2EiEatci0lj-105" value="fechaFin(0,1)" style="text;html=1;align=center;verticalAlign=middle;resizable=0;points=[];autosize=1;strokeColor=none;fillColor=none;" parent="1" vertex="1">
          <mxGeometry x="192" y="-439" width="90" height="20" as="geometry" />
        </mxCell>
        <mxCell id="mMfdGGbM-2EiEatci0lj-106" value="porcentajeDesc" style="text;html=1;align=center;verticalAlign=middle;resizable=0;points=[];autosize=1;strokeColor=none;fillColor=none;" parent="1" vertex="1">
          <mxGeometry x="208" y="-420" width="100" height="20" as="geometry" />
        </mxCell>
        <mxCell id="mMfdGGbM-2EiEatci0lj-107" value="(1,N)" style="text;html=1;align=center;verticalAlign=middle;resizable=0;points=[];autosize=1;strokeColor=none;fillColor=none;" parent="1" vertex="1">
          <mxGeometry x="268" y="-27" width="40" height="20" as="geometry" />
        </mxCell>
        <mxCell id="mMfdGGbM-2EiEatci0lj-108" value="(0,N)" style="text;html=1;align=center;verticalAlign=middle;resizable=0;points=[];autosize=1;strokeColor=none;fillColor=none;" parent="1" vertex="1">
          <mxGeometry x="270" y="120" width="40" height="20" as="geometry" />
        </mxCell>
        <mxCell id="mMfdGGbM-2EiEatci0lj-112" value="nroCliente" style="text;html=1;align=center;verticalAlign=middle;resizable=0;points=[];autosize=1;strokeColor=none;fillColor=none;" parent="1" vertex="1">
          <mxGeometry x="-150" y="275" width="70" height="20" as="geometry" />
        </mxCell>
        <mxCell id="mMfdGGbM-2EiEatci0lj-113" value="direccion" style="text;html=1;align=center;verticalAlign=middle;resizable=0;points=[];autosize=1;strokeColor=none;fillColor=none;" parent="1" vertex="1">
          <mxGeometry x="-149" y="289" width="60" height="20" as="geometry" />
        </mxCell>
        <mxCell id="mMfdGGbM-2EiEatci0lj-114" value="telefono" style="text;html=1;align=center;verticalAlign=middle;resizable=0;points=[];autosize=1;strokeColor=none;fillColor=none;" parent="1" vertex="1">
          <mxGeometry x="-151" y="305" width="60" height="20" as="geometry" />
        </mxCell>
        <mxCell id="mMfdGGbM-2EiEatci0lj-116" value="cuit(0,1)" style="text;html=1;align=center;verticalAlign=middle;resizable=0;points=[];autosize=1;strokeColor=none;fillColor=none;" parent="1" vertex="1">
          <mxGeometry x="-210" y="340" width="60" height="20" as="geometry" />
        </mxCell>
        <mxCell id="mMfdGGbM-2EiEatci0lj-128" style="edgeStyle=orthogonalEdgeStyle;rounded=0;orthogonalLoop=1;jettySize=auto;html=1;exitX=1;exitY=0.25;exitDx=0;exitDy=0;endArrow=oval;endFill=0;" parent="1" edge="1">
          <mxGeometry relative="1" as="geometry">
            <mxPoint x="670" y="434.9565217391305" as="targetPoint" />
            <mxPoint x="630" y="435" as="sourcePoint" />
          </mxGeometry>
        </mxCell>
        <mxCell id="mMfdGGbM-2EiEatci0lj-129" style="edgeStyle=orthogonalEdgeStyle;rounded=0;orthogonalLoop=1;jettySize=auto;html=1;exitX=1;exitY=0.5;exitDx=0;exitDy=0;endArrow=oval;endFill=0;" parent="1" source="mMfdGGbM-2EiEatci0lj-122" edge="1">
          <mxGeometry relative="1" as="geometry">
            <mxPoint x="670" y="449.73913043478274" as="targetPoint" />
          </mxGeometry>
        </mxCell>
        <mxCell id="mMfdGGbM-2EiEatci0lj-122" value="Proveedor" style="rounded=0;whiteSpace=wrap;html=1;fontStyle=1;fillColor=#d5e8d4;strokeColor=#82b366;" parent="1" vertex="1">
          <mxGeometry x="510" y="420" width="120" height="60" as="geometry" />
        </mxCell>
        <mxCell id="mMfdGGbM-2EiEatci0lj-127" style="edgeStyle=orthogonalEdgeStyle;rounded=0;orthogonalLoop=1;jettySize=auto;html=1;exitX=0.5;exitY=1;exitDx=0;exitDy=0;entryX=0.5;entryY=0;entryDx=0;entryDy=0;endArrow=none;endFill=0;" parent="1" source="mMfdGGbM-2EiEatci0lj-123" target="mMfdGGbM-2EiEatci0lj-122" edge="1">
          <mxGeometry relative="1" as="geometry" />
        </mxCell>
        <mxCell id="mMfdGGbM-2EiEatci0lj-123" value="provee" style="rhombus;whiteSpace=wrap;html=1;fillColor=#ffe6cc;strokeColor=#d79b00;" parent="1" vertex="1">
          <mxGeometry x="530" y="270" width="80" height="80" as="geometry" />
        </mxCell>
        <mxCell id="mMfdGGbM-2EiEatci0lj-131" value="telefono" style="text;html=1;align=center;verticalAlign=middle;resizable=0;points=[];autosize=1;strokeColor=none;fillColor=none;" parent="1" vertex="1">
          <mxGeometry x="670" y="440" width="60" height="20" as="geometry" />
        </mxCell>
        <mxCell id="mMfdGGbM-2EiEatci0lj-132" value="email" style="text;html=1;align=center;verticalAlign=middle;resizable=0;points=[];autosize=1;strokeColor=none;fillColor=none;" parent="1" vertex="1">
          <mxGeometry x="672" y="424" width="40" height="20" as="geometry" />
        </mxCell>
        <mxCell id="mMfdGGbM-2EiEatci0lj-134" value="(1,1)" style="text;html=1;align=center;verticalAlign=middle;resizable=0;points=[];autosize=1;strokeColor=none;fillColor=none;" parent="1" vertex="1">
          <mxGeometry x="570" y="200" width="40" height="20" as="geometry" />
        </mxCell>
        <mxCell id="mMfdGGbM-2EiEatci0lj-136" value="(1,1)" style="text;html=1;align=center;verticalAlign=middle;resizable=0;points=[];autosize=1;strokeColor=none;fillColor=none;" parent="1" vertex="1">
          <mxGeometry x="570" y="400" width="40" height="20" as="geometry" />
        </mxCell>
        <mxCell id="mMfdGGbM-2EiEatci0lj-137" value="(1,1)" style="text;html=1;align=center;verticalAlign=middle;resizable=0;points=[];autosize=1;strokeColor=none;fillColor=none;" parent="1" vertex="1">
          <mxGeometry x="297" y="150" width="40" height="20" as="geometry" />
        </mxCell>
        <mxCell id="mMfdGGbM-2EiEatci0lj-139" value="(0,N)" style="text;html=1;align=center;verticalAlign=middle;resizable=0;points=[];autosize=1;strokeColor=none;fillColor=none;" parent="1" vertex="1">
          <mxGeometry x="472" y="150" width="40" height="20" as="geometry" />
        </mxCell>
        <mxCell id="mMfdGGbM-2EiEatci0lj-143" style="edgeStyle=orthogonalEdgeStyle;rounded=0;orthogonalLoop=1;jettySize=auto;html=1;exitX=0.25;exitY=1;exitDx=0;exitDy=0;endArrow=oval;endFill=0;" parent="1" source="mMfdGGbM-2EiEatci0lj-122" edge="1">
          <mxGeometry relative="1" as="geometry">
            <mxPoint x="520" y="514.0869565217395" as="targetPoint" />
            <mxPoint x="547.3725830020308" y="514.3933982822018" as="sourcePoint" />
          </mxGeometry>
        </mxCell>
        <mxCell id="mMfdGGbM-2EiEatci0lj-144" style="edgeStyle=orthogonalEdgeStyle;rounded=0;orthogonalLoop=1;jettySize=auto;html=1;exitX=0.375;exitY=0.983;exitDx=0;exitDy=0;endArrow=oval;endFill=0;exitPerimeter=0;" parent="1" source="mMfdGGbM-2EiEatci0lj-122" edge="1">
          <mxGeometry relative="1" as="geometry">
            <mxPoint x="520" y="535.826086956522" as="targetPoint" />
            <mxPoint x="547.3725830020308" y="535.6066017177982" as="sourcePoint" />
            <Array as="points">
              <mxPoint x="555" y="536" />
            </Array>
          </mxGeometry>
        </mxCell>
        <mxCell id="mMfdGGbM-2EiEatci0lj-145" style="edgeStyle=orthogonalEdgeStyle;rounded=0;orthogonalLoop=1;jettySize=auto;html=1;exitX=0.75;exitY=1;exitDx=0;exitDy=0;endArrow=oval;endFill=0;" parent="1" source="mMfdGGbM-2EiEatci0lj-122" edge="1">
          <mxGeometry relative="1" as="geometry">
            <mxPoint x="620" y="514.0869565217395" as="targetPoint" />
            <mxPoint x="592.6274169979692" y="514.3933982822018" as="sourcePoint" />
          </mxGeometry>
        </mxCell>
        <mxCell id="mMfdGGbM-2EiEatci0lj-146" style="edgeStyle=orthogonalEdgeStyle;rounded=0;orthogonalLoop=1;jettySize=auto;html=1;exitX=0.558;exitY=1.017;exitDx=0;exitDy=0;endArrow=oval;endFill=0;exitPerimeter=0;" parent="1" source="mMfdGGbM-2EiEatci0lj-122" edge="1">
          <mxGeometry relative="1" as="geometry">
            <mxPoint x="620" y="535.826086956522" as="targetPoint" />
            <mxPoint x="592.6274169979692" y="535.6066017177982" as="sourcePoint" />
            <Array as="points">
              <mxPoint x="577" y="536" />
            </Array>
          </mxGeometry>
        </mxCell>
        <mxCell id="mMfdGGbM-2EiEatci0lj-147" value="calle" style="text;html=1;align=center;verticalAlign=middle;resizable=0;points=[];autosize=1;strokeColor=none;fillColor=none;" parent="1" vertex="1">
          <mxGeometry x="481" y="504" width="40" height="20" as="geometry" />
        </mxCell>
        <mxCell id="mMfdGGbM-2EiEatci0lj-148" value="nro" style="text;html=1;align=center;verticalAlign=middle;resizable=0;points=[];autosize=1;strokeColor=none;fillColor=none;" parent="1" vertex="1">
          <mxGeometry x="490" y="525" width="30" height="20" as="geometry" />
        </mxCell>
        <mxCell id="mMfdGGbM-2EiEatci0lj-149" value="piso(0,1)" style="text;html=1;align=center;verticalAlign=middle;resizable=0;points=[];autosize=1;strokeColor=none;fillColor=none;" parent="1" vertex="1">
          <mxGeometry x="621" y="505" width="60" height="20" as="geometry" />
        </mxCell>
        <mxCell id="mMfdGGbM-2EiEatci0lj-150" value="dpto(0,1)" style="text;html=1;align=center;verticalAlign=middle;resizable=0;points=[];autosize=1;strokeColor=none;fillColor=none;" parent="1" vertex="1">
          <mxGeometry x="621" y="526" width="60" height="20" as="geometry" />
        </mxCell>
        <mxCell id="mMfdGGbM-2EiEatci0lj-156" value="nombre" style="text;html=1;align=center;verticalAlign=middle;resizable=0;points=[];autosize=1;strokeColor=none;fillColor=none;" parent="1" vertex="1">
          <mxGeometry x="254" y="301" width="60" height="20" as="geometry" />
        </mxCell>
        <mxCell id="mMfdGGbM-2EiEatci0lj-157" value="descripcion" style="text;html=1;align=center;verticalAlign=middle;resizable=0;points=[];autosize=1;strokeColor=none;fillColor=none;" parent="1" vertex="1">
          <mxGeometry x="237" y="321" width="80" height="20" as="geometry" />
        </mxCell>
        <mxCell id="mMfdGGbM-2EiEatci0lj-158" value="tamaño" style="text;html=1;align=center;verticalAlign=middle;resizable=0;points=[];autosize=1;strokeColor=none;fillColor=none;" parent="1" vertex="1">
          <mxGeometry x="221" y="341" width="60" height="20" as="geometry" />
        </mxCell>
        <mxCell id="mMfdGGbM-2EiEatci0lj-159" value="precioAct" style="text;html=1;align=center;verticalAlign=middle;resizable=0;points=[];autosize=1;strokeColor=none;fillColor=none;" parent="1" vertex="1">
          <mxGeometry x="207" y="361" width="70" height="20" as="geometry" />
        </mxCell>
        <mxCell id="G6NL-QWqGKTzPhSWlAU9-2" value="tipo" style="text;html=1;align=center;verticalAlign=middle;resizable=0;points=[];autosize=1;strokeColor=none;fillColor=none;" parent="1" vertex="1">
          <mxGeometry x="-196" y="-199" width="30" height="20" as="geometry" />
        </mxCell>
        <mxCell id="G6NL-QWqGKTzPhSWlAU9-3" value="ayudante: &quot;mediante el atributo tipo se elimina la jerarquia con entidades vacias o 2 rombos&quot;" style="shape=note;whiteSpace=wrap;html=1;backgroundOutline=1;darkOpacity=0.05;fillColor=#d5e8d4;strokeColor=#82b366;" parent="1" vertex="1">
          <mxGeometry x="-391" y="-120" width="191" height="80" as="geometry" />
        </mxCell>
        <mxCell id="G6NL-QWqGKTzPhSWlAU9-4" value="ayudante: el proveedor trabaja solo con 1 marca" style="shape=note;whiteSpace=wrap;html=1;backgroundOutline=1;darkOpacity=0.05;fillColor=#d5e8d4;strokeColor=#82b366;" parent="1" vertex="1">
          <mxGeometry x="681" y="210" width="119" height="60" as="geometry" />
        </mxCell>
        <mxCell id="G6NL-QWqGKTzPhSWlAU9-5" value="ayudante: email y telefono nunca deberian usarse para identificadores" style="shape=note;whiteSpace=wrap;html=1;backgroundOutline=1;darkOpacity=0.05;fillColor=#d5e8d4;strokeColor=#82b366;" parent="1" vertex="1">
          <mxGeometry x="681" y="295" width="149" height="45" as="geometry" />
        </mxCell>
        <mxCell id="G6NL-QWqGKTzPhSWlAU9-6" value="" style="curved=1;endArrow=oval;html=1;rounded=0;entryX=1;entryY=0;entryDx=0;entryDy=0;endFill=1;" parent="1" target="mMfdGGbM-2EiEatci0lj-122" edge="1">
          <mxGeometry width="50" height="50" relative="1" as="geometry">
            <mxPoint x="570" y="240" as="sourcePoint" />
            <mxPoint x="490" y="320" as="targetPoint" />
            <Array as="points">
              <mxPoint x="650" y="280" />
            </Array>
          </mxGeometry>
        </mxCell>
        <mxCell id="o3-ZCwz5johq-laWg9kE-3" style="edgeStyle=orthogonalEdgeStyle;rounded=0;orthogonalLoop=1;jettySize=auto;html=1;exitX=0.5;exitY=0;exitDx=0;exitDy=0;entryX=0.25;entryY=1;entryDx=0;entryDy=0;endArrow=none;endFill=0;" edge="1" parent="1" source="o3-ZCwz5johq-laWg9kE-1" target="mMfdGGbM-2EiEatci0lj-33">
          <mxGeometry relative="1" as="geometry" />
        </mxCell>
        <mxCell id="o3-ZCwz5johq-laWg9kE-4" style="edgeStyle=orthogonalEdgeStyle;rounded=0;orthogonalLoop=1;jettySize=auto;html=1;exitX=0.5;exitY=1;exitDx=0;exitDy=0;entryX=0.5;entryY=0;entryDx=0;entryDy=0;endArrow=none;endFill=0;" edge="1" parent="1" source="o3-ZCwz5johq-laWg9kE-1" target="mMfdGGbM-2EiEatci0lj-51">
          <mxGeometry relative="1" as="geometry" />
        </mxCell>
        <mxCell id="o3-ZCwz5johq-laWg9kE-1" value="es_tipo&lt;br&gt;tarjetas" style="rhombus;whiteSpace=wrap;html=1;" vertex="1" parent="1">
          <mxGeometry x="80" y="-234" width="80" height="80" as="geometry" />
        </mxCell>
        <mxCell id="o3-ZCwz5johq-laWg9kE-6" style="edgeStyle=orthogonalEdgeStyle;rounded=0;orthogonalLoop=1;jettySize=auto;html=1;exitX=0.5;exitY=1;exitDx=0;exitDy=0;entryX=0.5;entryY=0;entryDx=0;entryDy=0;endArrow=none;endFill=0;" edge="1" parent="1" source="o3-ZCwz5johq-laWg9kE-2" target="mMfdGGbM-2EiEatci0lj-50">
          <mxGeometry relative="1" as="geometry" />
        </mxCell>
        <mxCell id="o3-ZCwz5johq-laWg9kE-2" value="es_tipo&lt;br&gt;producto" style="rhombus;whiteSpace=wrap;html=1;" vertex="1" parent="1">
          <mxGeometry x="230" y="-238" width="80" height="80" as="geometry" />
        </mxCell>
        <mxCell id="o3-ZCwz5johq-laWg9kE-7" value="(0,1)" style="text;html=1;align=center;verticalAlign=middle;resizable=0;points=[];autosize=1;strokeColor=none;fillColor=none;" vertex="1" parent="1">
          <mxGeometry x="120" y="-310" width="40" height="20" as="geometry" />
        </mxCell>
        <mxCell id="o3-ZCwz5johq-laWg9kE-8" value="(0,1)" style="text;html=1;align=center;verticalAlign=middle;resizable=0;points=[];autosize=1;strokeColor=none;fillColor=none;" vertex="1" parent="1">
          <mxGeometry x="220" y="-310" width="40" height="20" as="geometry" />
        </mxCell>
        <mxCell id="o3-ZCwz5johq-laWg9kE-9" value="(1,1)" style="text;html=1;align=center;verticalAlign=middle;resizable=0;points=[];autosize=1;strokeColor=none;fillColor=none;" vertex="1" parent="1">
          <mxGeometry x="70" y="-110" width="40" height="20" as="geometry" />
        </mxCell>
        <mxCell id="o3-ZCwz5johq-laWg9kE-10" value="(1,1)" style="text;html=1;align=center;verticalAlign=middle;resizable=0;points=[];autosize=1;strokeColor=none;fillColor=none;" vertex="1" parent="1">
          <mxGeometry x="270" y="-110" width="40" height="20" as="geometry" />
        </mxCell>
        <mxCell id="o3-ZCwz5johq-laWg9kE-11" value="" style="curved=1;endArrow=oval;html=1;rounded=0;entryX=0;entryY=0;entryDx=0;entryDy=0;endFill=1;" edge="1" parent="1" target="mMfdGGbM-2EiEatci0lj-51">
          <mxGeometry width="50" height="50" relative="1" as="geometry">
            <mxPoint x="120" y="-250" as="sourcePoint" />
            <mxPoint x="30" y="-240" as="targetPoint" />
            <Array as="points">
              <mxPoint x="-20" y="-240" />
            </Array>
          </mxGeometry>
        </mxCell>
        <mxCell id="o3-ZCwz5johq-laWg9kE-14" value="" style="curved=1;endArrow=oval;html=1;rounded=0;entryX=1;entryY=0;entryDx=0;entryDy=0;endFill=1;" edge="1" parent="1" target="mMfdGGbM-2EiEatci0lj-50">
          <mxGeometry width="50" height="50" relative="1" as="geometry">
            <mxPoint x="270" y="-260" as="sourcePoint" />
            <mxPoint x="410" y="-240" as="targetPoint" />
            <Array as="points">
              <mxPoint x="360" y="-240" />
            </Array>
          </mxGeometry>
        </mxCell>
        <mxCell id="o3-ZCwz5johq-laWg9kE-26" style="edgeStyle=orthogonalEdgeStyle;rounded=0;orthogonalLoop=1;jettySize=auto;html=1;exitX=0.5;exitY=1;exitDx=0;exitDy=0;entryX=0.5;entryY=0;entryDx=0;entryDy=0;endArrow=none;endFill=0;" edge="1" parent="1" source="o3-ZCwz5johq-laWg9kE-18" target="o3-ZCwz5johq-laWg9kE-24">
          <mxGeometry relative="1" as="geometry" />
        </mxCell>
        <mxCell id="o3-ZCwz5johq-laWg9kE-18" value="aplica_sup" style="rhombus;whiteSpace=wrap;html=1;" vertex="1" parent="1">
          <mxGeometry x="150" y="394" width="80" height="80" as="geometry" />
        </mxCell>
        <mxCell id="o3-ZCwz5johq-laWg9kE-21" value="superficie_aplicable" style="text;html=1;align=center;verticalAlign=middle;resizable=0;points=[];autosize=1;strokeColor=none;fillColor=none;" vertex="1" parent="1">
          <mxGeometry x="288" y="560" width="120" height="20" as="geometry" />
        </mxCell>
        <mxCell id="o3-ZCwz5johq-laWg9kE-25" style="edgeStyle=orthogonalEdgeStyle;rounded=0;orthogonalLoop=1;jettySize=auto;html=1;exitX=1;exitY=0.5;exitDx=0;exitDy=0;endArrow=oval;endFill=1;" edge="1" parent="1" source="o3-ZCwz5johq-laWg9kE-24">
          <mxGeometry relative="1" as="geometry">
            <mxPoint x="288" y="570" as="targetPoint" />
          </mxGeometry>
        </mxCell>
        <mxCell id="o3-ZCwz5johq-laWg9kE-24" value="SuperficieAplicable" style="rounded=0;whiteSpace=wrap;html=1;fontStyle=1;fillColor=#d5e8d4;strokeColor=#82b366;" vertex="1" parent="1">
          <mxGeometry x="130" y="540" width="120" height="60" as="geometry" />
        </mxCell>
        <mxCell id="o3-ZCwz5johq-laWg9kE-27" value="(0,N)" style="text;html=1;align=center;verticalAlign=middle;resizable=0;points=[];autosize=1;strokeColor=none;fillColor=none;" vertex="1" parent="1">
          <mxGeometry x="150" y="520" width="40" height="20" as="geometry" />
        </mxCell>
        <mxCell id="o3-ZCwz5johq-laWg9kE-28" value="(0,N)" style="text;html=1;align=center;verticalAlign=middle;resizable=0;points=[];autosize=1;strokeColor=none;fillColor=none;" vertex="1" parent="1">
          <mxGeometry x="150" y="203" width="40" height="20" as="geometry" />
        </mxCell>
        <mxCell id="o3-ZCwz5johq-laWg9kE-31" value="tipo" style="text;html=1;align=center;verticalAlign=middle;resizable=0;points=[];autosize=1;strokeColor=none;fillColor=none;" vertex="1" parent="1">
          <mxGeometry x="-207" y="240" width="30" height="20" as="geometry" />
        </mxCell>
      </root>
    </mxGraphModel>
  </diagram>
</mxfile>
